<svg width="113" height="39" viewBox="0 0 113 39" fill="none" xmlns="http://www.w3.org/2000/svg">
<path d="M24 27.6C18.0533 28.1333 13.12 28.4 9.2 28.4C6.58667 28.4 4.66667 27.7867 3.44 26.56C2.21333 25.3333 1.6 23.4133 1.6 20.8V8C1.6 5.2 2.22667 3.17333 3.48 1.92C4.76 0.639999 6.8 -1.90735e-06 9.6 -1.90735e-06H24V5.6H11.2C9.6 5.6 8.8 6.4 8.8 8V20.8C8.8 21.4133 8.97333 21.9067 9.32 22.28C9.69333 22.6267 10.16 22.8 10.72 22.8C11.28 22.8 11.8933 22.8 12.56 22.8C13.2267 22.7733 13.92 22.7467 14.64 22.72C15.36 22.6933 16.08 22.6667 16.8 22.64C17.5467 22.6133 18.4933 22.56 19.64 22.48C20.8133 22.4 22.2667 22.3067 24 22.2V27.6ZM27.2047 -1.90735e-06H44.0047C46.8047 -1.90735e-06 48.8314 0.639999 50.0847 1.92C51.3647 3.17333 52.0047 5.2 52.0047 8V11.6C52.0047 13.8133 51.6314 15.5333 50.8847 16.76C50.1647 17.9867 49.0047 18.8 47.4047 19.2L52.4047 28H44.6047L40.0047 19.6H34.4047V28H27.2047V-1.90735e-06ZM44.8047 8C44.8047 6.4 44.0047 5.6 42.4047 5.6H34.4047V14H42.4047C44.0047 14 44.8047 13.2 44.8047 11.6V8ZM73.9938 -1.90735e-06H81.1938V20.4C81.1938 23.2 80.5538 25.24 79.2738 26.52C78.0204 27.7733 75.9938 28.4 73.1938 28.4H63.9938C61.1938 28.4 59.1538 27.7733 57.8738 26.52C56.6204 25.24 55.9938 23.2 55.9938 20.4V-1.90735e-06H63.1938V20.4C63.1938 22 63.9938 22.8 65.5938 22.8H71.5938C73.1938 22.8 73.9938 22 73.9938 20.4V-1.90735e-06ZM101.594 -1.90735e-06C104.607 -1.90735e-06 106.887 0.786665 108.434 2.36C110.007 3.90667 110.794 6.18667 110.794 9.2V18.8C110.794 21.8133 110.007 24.1067 108.434 25.68C106.887 27.2267 104.607 28 101.594 28H85.9938V-1.90735e-06H101.594ZM103.594 9.2C103.594 6.8 102.394 5.6 99.9938 5.6H93.1938V22.4H99.9938C102.394 22.4 103.594 21.2 103.594 18.8V9.2Z" fill="#706F6F"/>
<path d="M7.61 32.39C7.61 31.95 7.39 31.73 6.95 31.73H5.08C4.64 31.73 4.42 31.95 4.42 32.39V35.91C4.42 36.35 4.64 36.57 5.08 36.57H6.95C7.39 36.57 7.61 36.35 7.61 35.91V32.39ZM9.59 35.91C9.59 36.68 9.414 37.241 9.062 37.593C8.71733 37.9377 8.16 38.11 7.39 38.11H4.64C3.87 38.11 3.309 37.9377 2.957 37.593C2.61233 37.241 2.44 36.68 2.44 35.91V32.39C2.44 31.62 2.61233 31.0627 2.957 30.718C3.309 30.366 3.87 30.19 4.64 30.19H7.39C8.16 30.19 8.71733 30.366 9.062 30.718C9.414 31.0627 9.59 31.62 9.59 32.39V35.91ZM14.6552 30.3H19.2752C20.0452 30.3 20.6025 30.476 20.9472 30.828C21.2992 31.1727 21.4752 31.73 21.4752 32.5V33.6C21.4752 34.37 21.2992 34.931 20.9472 35.283C20.6025 35.6277 20.0452 35.8 19.2752 35.8H16.6352V38H14.6552V30.3ZM19.4952 32.5C19.4952 32.06 19.2752 31.84 18.8352 31.84H16.6352V34.26H18.8352C19.2752 34.26 19.4952 34.04 19.4952 33.6V32.5ZM32.5297 38H26.4247V30.3H32.5297V31.84H28.4047V33.325H31.6497V34.865H28.4047V36.46H32.5297V38ZM37.3671 30.3H41.9871C42.7571 30.3 43.3145 30.476 43.6591 30.828C44.0111 31.1727 44.1871 31.73 44.1871 32.5V33.49C44.1871 34.0987 44.0845 34.5717 43.8791 34.909C43.6811 35.2463 43.3621 35.47 42.9221 35.58L44.2972 38H42.1521L40.8871 35.69H39.3471V38H37.3671V30.3ZM42.2071 32.5C42.2071 32.06 41.9871 31.84 41.5471 31.84H39.3471V34.15H41.5471C41.9871 34.15 42.2071 33.93 42.2071 33.49V32.5ZM50.6191 38H48.4741L51.3891 30.3H53.5891L56.5041 38H54.3591L53.8641 36.625H51.1141L50.6191 38ZM51.6091 35.195H53.3691L52.4891 32.61L51.6091 35.195ZM63.9803 38H62.0003V31.84H59.6903V30.3H66.2903V31.84H63.9803V38ZM74.6516 38H70.6916V36.46H71.6816V31.84H70.6916V30.3H74.6516V31.84H73.6616V36.46H74.6516V38ZM84.5507 32.39C84.5507 31.95 84.3307 31.73 83.8907 31.73H82.0207C81.5807 31.73 81.3607 31.95 81.3607 32.39V35.91C81.3607 36.35 81.5807 36.57 82.0207 36.57H83.8907C84.3307 36.57 84.5507 36.35 84.5507 35.91V32.39ZM86.5307 35.91C86.5307 36.68 86.3547 37.241 86.0027 37.593C85.658 37.9377 85.1007 38.11 84.3307 38.11H81.5807C80.8107 38.11 80.2497 37.9377 79.8977 37.593C79.553 37.241 79.3807 36.68 79.3807 35.91V32.39C79.3807 31.62 79.553 31.0627 79.8977 30.718C80.2497 30.366 80.8107 30.19 81.5807 30.19H84.3307C85.1007 30.19 85.658 30.366 86.0027 30.718C86.3547 31.0627 86.5307 31.62 86.5307 32.39V35.91ZM98.3059 38H96.2159L93.5759 33.38V38H91.5959V30.3H93.6859L96.3259 34.92V30.3H98.3059V38ZM103.36 36.405C105.369 36.515 106.73 36.57 107.441 36.57C107.61 36.57 107.742 36.5223 107.837 36.427C107.94 36.3243 107.991 36.1887 107.991 36.02V35.03H105.461C104.691 35.03 104.13 34.8577 103.778 34.513C103.433 34.161 103.261 33.6 103.261 32.83V32.5C103.261 31.73 103.433 31.1727 103.778 30.828C104.13 30.476 104.691 30.3 105.461 30.3H109.322V31.84H105.901C105.461 31.84 105.241 32.06 105.241 32.5V32.72C105.241 33.16 105.461 33.38 105.901 33.38H107.881C108.6 33.38 109.128 33.5487 109.465 33.886C109.802 34.2233 109.971 34.7513 109.971 35.47V36.02C109.971 36.7387 109.802 37.2667 109.465 37.604C109.128 37.9413 108.6 38.11 107.881 38.11C107.507 38.11 107.111 38.1027 106.693 38.088L105.681 38.044C104.933 38.0073 104.159 37.956 103.36 37.89V36.405Z" fill="#22C55E"/>
</svg>
