<svg width="202" height="202" viewBox="0 0 202 202" fill="none" xmlns="http://www.w3.org/2000/svg">
<rect x="1" y="1" width="200" height="200" rx="40" fill="white" stroke="black"/>
<path d="M69.98 109.4H87.62V159.38C87.62 166.24 86.052 171.238 82.916 174.374C79.8453 177.445 74.88 178.98 68.02 178.98H45.48C38.62 178.98 33.622 177.445 30.486 174.374C27.4153 171.238 25.88 166.24 25.88 159.38V109.4H43.52V159.38C43.52 163.3 45.48 165.26 49.4 165.26H64.1C68.02 165.26 69.98 163.3 69.98 159.38V109.4Z" fill="#706F6F"/>
<path d="M115.88 24.4H157.04C163.9 24.4 168.865 25.968 171.936 29.104C175.072 32.1747 176.64 37.14 176.64 44V52.82C176.64 58.2427 175.725 62.4567 173.896 65.462C172.132 68.4673 169.29 70.46 165.37 71.44L177.62 93H158.51L147.24 72.42H133.52V93H115.88V24.4ZM159 44C159 40.08 157.04 38.12 153.12 38.12H133.52V58.7H153.12C157.04 58.7 159 56.74 159 52.82V44Z" fill="#706F6F"/>
<path d="M80.8 92.02C66.2307 93.3267 54.144 93.98 44.54 93.98C38.1373 93.98 33.4333 92.4773 30.428 89.472C27.4227 86.4667 25.92 81.7627 25.92 75.36V44C25.92 37.14 27.4553 32.1747 30.526 29.104C33.662 25.968 38.66 24.4 45.52 24.4H80.8V38.12H49.44C45.52 38.12 43.56 40.08 43.56 44V75.36C43.56 76.8627 43.9847 78.0713 44.834 78.986C45.7487 79.8353 46.892 80.26 48.264 80.26C49.636 80.26 51.1387 80.26 52.772 80.26C54.4053 80.1947 56.104 80.1293 57.868 80.064C59.632 79.9987 61.396 79.9333 63.16 79.868C64.9893 79.8027 67.3087 79.672 70.118 79.476C72.9927 79.28 76.5533 79.0513 80.8 78.79V92.02Z" fill="#22C55E"/>
<path d="M156.1 109.4C163.483 109.4 169.069 111.327 172.858 115.182C176.713 118.971 178.64 124.557 178.64 131.94V155.46C178.64 162.843 176.713 168.461 172.858 172.316C169.069 176.105 163.483 178 156.1 178H117.88V109.4H156.1ZM161 131.94C161 126.06 158.06 123.12 152.18 123.12H135.52V164.28H152.18C158.06 164.28 161 161.34 161 155.46V131.94Z" fill="#706F6F"/>
</svg>
